<?xml version="1.0" standalone="no"?>
<!DOCTYPE svg PUBLIC "-//W3C//DTD SVG 20010904//EN"
 "http://www.w3.org/TR/2001/REC-SVG-20010904/DTD/svg10.dtd">
<svg version="1.0" xmlns="http://www.w3.org/2000/svg"
 width="656.000000pt" height="552.000000pt" viewBox="0 0 656.000000 552.000000"
 preserveAspectRatio="xMidYMid meet">

<g transform="translate(0.000000,552.000000) scale(0.100000,-0.100000)"
fill="#000000" stroke="none">
<path d="M2970 4299 c-184 -23 -413 -135 -615 -299 -277 -227 -435 -544 -435
-876 l0 -94 129 0 128 0 6 113 c7 132 37 249 96 365 146 288 392 488 741 602
159 52 239 64 430 64 220 0 345 -24 565 -109 53 -20 -70 54 -159 95 -118 56
-234 94 -366 121 -111 23 -403 33 -520 18z"/>
<path d="M2759 3557 c-20 -35 -88 -168 -153 -296 l-117 -232 137 3 138 3 75
162 c42 90 79 163 82 163 3 0 38 -69 78 -152 90 -192 85 -183 105 -182 9 1 87
2 175 3 l159 1 6 35 c11 57 88 114 157 115 8 0 32 35 54 76 23 42 45 77 50 78
6 0 31 -54 56 -121 25 -68 54 -132 64 -143 20 -22 167 -130 204 -149 12 -7 21
-16 21 -21 0 -5 -31 -33 -70 -61 -38 -28 -70 -51 -70 -52 0 -1 15 -42 34 -92
l33 -90 679 -1 c456 -1 641 2 564 7 -483 37 -656 53 -800 75 -90 14 -172 30
-181 35 -9 5 -29 41 -45 81 -39 105 -110 282 -209 523 -48 116 -94 229 -102
253 l-15 42 -138 0 -138 0 -30 -47 c-16 -27 -69 -115 -117 -198 -48 -82 -100
-170 -115 -194 l-28 -43 -123 241 -124 241 -131 0 -130 0 -35 -63z"/>
<path d="M4005 3507 c-3 -7 13 -60 37 -116 37 -88 48 -106 78 -121 112 -59
162 -185 93 -235 -14 -10 -11 -24 29 -126 25 -63 47 -121 51 -130 5 -16 63
-29 257 -59 147 -22 414 -34 511 -22 104 13 139 31 152 79 40 137 -275 511
-553 657 -125 66 -189 78 -432 83 -184 4 -219 3 -223 -10z m528 -56 c15 -6 27
-16 27 -22 0 -8 -26 -10 -92 -6 -104 5 -128 12 -128 35 0 13 12 14 83 9 45 -3
95 -10 110 -16z m187 -95 c110 -57 340 -268 340 -312 0 -11 -23 -14 -107 -14
-223 1 -296 27 -467 169 -57 47 -125 104 -151 125 -43 35 -46 41 -29 48 10 4
100 6 199 5 150 -3 186 -6 215 -21z m133 -455 c33 -13 43 -46 23 -76 -19 -29
-51 -32 -78 -8 -23 21 -24 69 0 82 22 13 25 13 55 2z m331 -34 c13 -36 -11
-63 -48 -53 -60 15 -54 90 7 84 24 -2 34 -9 41 -31z"/>
<path d="M3663 3023 l2 -58 -875 -3 -876 -2 -64 -65 -64 -65 937 0 937 0 0
-54 c0 -30 4 -57 9 -60 5 -3 28 9 52 27 24 18 79 57 122 87 43 29 80 56 82 60
5 8 -240 190 -255 190 -5 0 -8 -26 -7 -57z"/>
<path d="M970 2895 l-64 -65 70 0 70 0 64 65 64 65 -70 0 -70 0 -64 -65z"/>
<path d="M1180 2895 l-64 -65 74 1 75 1 59 64 59 64 -69 0 -70 0 -64 -65z"/>
<path d="M1390 2895 l-64 -65 59 0 c60 0 60 0 130 65 l70 64 -65 1 -66 0 -64
-65z"/>
<path d="M1580 2895 l-64 -65 43 0 c40 0 49 5 110 65 l66 65 -45 0 c-43 0 -49
-4 -110 -65z"/>
<path d="M1730 2895 c-57 -58 -62 -65 -40 -65 16 1 49 23 95 65 67 63 68 65
39 65 -23 0 -43 -14 -94 -65z"/>
<path d="M2477 2773 c-4 -3 -7 -46 -7 -95 l0 -89 78 3 c60 2 77 6 77 18 0 11
-14 16 -57 18 -50 3 -58 6 -58 22 0 17 7 20 50 20 38 0 50 4 50 15 0 11 -12
15 -50 15 -47 0 -50 2 -50 25 0 24 3 25 55 25 42 0 55 3 55 15 0 12 -14 15
-68 15 -38 0 -72 -3 -75 -7z"/>
<path d="M2713 2773 c-26 -5 -31 -22 -8 -24 8 -1 21 -2 28 -3 8 -1 13 -25 15
-73 3 -64 5 -73 22 -73 17 0 19 9 22 73 3 70 4 72 31 75 15 2 27 7 27 12 0 15
-85 23 -137 13z"/>
<path d="M3223 2773 c-38 -7 -73 -49 -73 -86 0 -104 174 -128 211 -28 16 42
-6 87 -52 105 -40 16 -46 17 -86 9z m71 -34 c45 -21 40 -90 -9 -109 -27 -10
-74 2 -87 23 -15 24 -8 66 14 81 27 19 48 20 82 5z"/>
<path d="M2180 2685 c0 -80 1 -85 21 -85 20 0 21 4 17 55 -3 30 -1 55 2 55 4
0 18 -16 31 -35 13 -19 27 -35 30 -35 4 0 19 19 35 42 l29 42 3 -62 c3 -54 6
-62 22 -62 18 0 20 7 20 85 0 81 -1 85 -22 85 -14 0 -35 -15 -55 -37 l-31 -38
-26 30 c-14 17 -26 33 -26 38 0 4 -11 7 -25 7 -25 0 -25 -1 -25 -85z"/>
<path d="M2920 2685 c0 -78 2 -85 20 -85 16 0 20 7 20 30 0 22 5 30 18 30 19
0 57 -30 64 -50 2 -7 14 -10 27 -8 l23 3 -21 26 c-20 26 -20 27 -1 44 24 22
26 58 4 79 -11 12 -35 16 -85 16 l-69 0 0 -85z m124 49 c27 -26 4 -54 -44 -54
-39 0 -40 1 -40 35 0 33 2 35 34 35 19 0 42 -7 50 -16z"/>
<path d="M2095 2523 c90 -141 220 -276 364 -377 91 -64 289 -166 370 -190 143
-42 449 -45 641 -6 189 38 476 150 555 215 l20 17 -20 -7 c-11 -4 -49 -18 -85
-32 -136 -52 -262 -74 -456 -80 -207 -6 -323 8 -479 58 -197 65 -441 219 -568
360 l-62 69 -149 0 -148 0 17 -27z"/>
<path d="M3152 1522 c-79 -6 -32 -22 61 -21 132 2 176 15 67 20 -47 2 -104 3
-128 1z"/>
<path d="M2409 1093 c0 -60 -2 -118 -3 -130 -3 -22 0 -23 91 -23 121 0 163 20
163 76 0 8 -12 26 -26 39 -23 21 -24 26 -10 31 17 6 22 59 8 80 -16 24 -55 34
-136 34 l-86 0 -1 -107z m167 53 c15 -12 17 -18 8 -33 -8 -13 -26 -19 -68 -21
-56 -3 -56 -3 -56 26 0 16 3 32 7 35 12 13 89 7 109 -7z m18 -119 c17 -28 -17
-47 -81 -47 l-53 0 0 35 0 36 61 -3 c47 -2 65 -7 73 -21z"/>
<path d="M2763 1180 c-86 -52 -90 -162 -8 -216 72 -47 165 -36 228 27 37 36
39 43 35 83 -10 84 -65 126 -165 126 -40 0 -68 -6 -90 -20z m168 -49 c20 -20
29 -39 29 -61 0 -46 -47 -90 -97 -90 -80 0 -131 64 -101 127 28 59 120 72 169
24z"/>
<path d="M3133 1185 c-67 -29 -96 -133 -52 -189 11 -14 35 -34 52 -42 68 -36
221 -7 212 40 -2 12 -4 36 -4 54 -1 29 -4 33 -23 30 -19 -2 -24 -10 -26 -44
-2 -33 -8 -43 -25 -48 -57 -15 -127 5 -141 39 -34 90 52 162 150 125 21 -8 31
-8 42 4 37 36 -114 62 -185 31z"/>
<path d="M3475 1186 c-54 -24 -80 -62 -80 -116 0 -53 24 -88 80 -117 43 -23
122 -21 171 5 97 50 95 175 -4 226 -37 19 -125 20 -167 2z m130 -40 c62 -26
74 -89 25 -138 -28 -28 -35 -30 -82 -26 -81 8 -118 65 -84 127 27 48 80 62
141 37z"/>
<path d="M3740 1180 c0 -17 7 -20 45 -20 l45 0 0 -110 0 -110 30 0 30 0 0 104
0 105 48 3 c40 3 47 6 50 26 3 22 2 22 -122 22 -119 0 -126 -1 -126 -20z"/>
<path d="M4037 1070 l-68 -130 31 0 c23 0 33 6 42 25 11 24 16 25 90 25 74 0
79 -1 90 -25 8 -18 19 -25 40 -25 15 0 28 3 28 8 -1 4 -29 61 -63 127 -57 110
-65 120 -92 123 -29 3 -32 -1 -98 -128z m127 -38 c-13 -2 -37 -2 -53 0 l-29 3
25 55 25 55 28 -55 28 -55 -24 -3z"/>
</g>
</svg>
