<?xml version="1.0" standalone="no"?>
<!DOCTYPE svg PUBLIC "-//W3C//DTD SVG 20010904//EN"
 "http://www.w3.org/TR/2001/REC-SVG-20010904/DTD/svg10.dtd">
<svg version="1.0" xmlns="http://www.w3.org/2000/svg"
 width="901.000000pt" height="782.000000pt" viewBox="0 0 901.000000 782.000000"
 preserveAspectRatio="xMidYMid meet">

<g transform="translate(0.000000,782.000000) scale(0.100000,-0.100000)"
fill="#000000" stroke="none">
<path d="M4420 5923 c-349 -35 -630 -112 -901 -249 -496 -249 -869 -668 -1023
-1151 -56 -174 -70 -277 -71 -510 l0 -203 -211 0 -211 0 -83 -91 c-46 -50 -92
-102 -103 -115 l-19 -25 123 2 c128 1 149 4 149 21 0 6 -7 8 -15 4 -8 -3 -15
-1 -15 4 0 8 145 5 192 -4 10 -2 41 21 77 58 74 75 81 80 106 84 20 4 19 3
-77 -100 -10 -10 -18 -14 -18 -8 0 5 -12 -2 -26 -17 -14 -14 -23 -28 -19 -31
3 -3 13 4 21 17 12 16 19 20 27 12 6 -6 38 -11 70 -11 l59 0 79 77 c45 43 79
85 79 96 0 12 5 17 14 14 8 -3 16 -2 18 3 2 4 209 10 462 13 252 3 459 7 460
9 2 2 67 140 145 308 78 168 156 332 174 365 l32 60 170 3 171 2 124 -250 c69
-137 127 -250 130 -250 3 1 60 106 128 234 68 129 129 241 135 249 10 13 47
17 197 21 102 4 190 3 196 -1 5 -5 19 -33 31 -63 l20 -54 249 -1 c236 -1 254
-2 345 -27 191 -52 365 -164 563 -363 87 -87 230 -284 257 -352 28 -72 30
-157 6 -194 -23 -35 -100 -68 -177 -76 -33 -3 -63 -9 -65 -13 -4 -6 93 -25
232 -45 51 -8 51 -8 98 148 56 184 69 277 69 492 0 151 -5 214 -22 306 -144
785 -844 1419 -1732 1568 -215 36 -464 50 -620 34z m448 -549 c200 -14 456
-84 624 -171 365 -188 626 -476 778 -859 17 -42 29 -78 28 -79 -2 -2 -32 22
-68 52 -124 108 -255 179 -378 207 -58 13 -68 20 -145 98 -146 150 -262 234
-430 313 -194 92 -377 135 -572 135 -164 0 -267 -12 -420 -50 -207 -52 -338
-106 -525 -219 -63 -38 -117 -67 -120 -64 -9 9 112 113 190 164 270 178 602
264 918 239 230 -18 382 -55 600 -147 27 -11 9 21 -40 73 -57 61 -178 138
-278 177 -152 60 -289 84 -535 96 l-150 7 60 13 c120 27 245 31 463 15z"/>
<path d="M3780 4213 c-83 -170 -155 -316 -160 -325 -6 -10 -10 -25 -10 -34 0
-15 10 -16 83 -11 45 4 109 7 143 7 l60 0 84 185 c45 102 87 188 92 191 5 3
50 -80 101 -185 l92 -191 190 2 189 3 6 30 c14 68 81 125 163 139 36 7 40 11
85 102 25 51 50 94 53 94 8 0 48 -96 100 -238 21 -60 41 -98 54 -105 23 -12
235 -177 235 -183 0 -2 -35 -28 -78 -58 l-79 -55 36 -106 36 -105 350 -2 c193
-1 379 -1 415 -1 36 1 129 2 208 2 87 1 142 5 142 11 0 6 -24 10 -52 10 -119
0 -768 87 -786 105 -6 6 -31 66 -124 295 -38 96 -109 270 -157 385 -48 116
-98 238 -110 272 -13 34 -30 64 -39 68 -9 3 -73 5 -144 4 -94 -1 -130 -5 -139
-15 -12 -15 -166 -290 -206 -369 -14 -27 -44 -78 -66 -113 -37 -57 -42 -62
-54 -46 -7 10 -72 136 -145 281 l-131 263 -143 0 -143 0 -151 -307z"/>
<path d="M5275 4390 c-4 -6 14 -65 41 -130 l47 -119 47 -16 c66 -22 115 -79
134 -158 7 -28 -21 -108 -42 -121 -7 -4 2 -35 25 -84 20 -42 48 -108 64 -147
l27 -70 54 -12 c135 -32 440 -63 618 -63 204 0 267 10 301 46 53 57 16 191
-90 324 -28 36 -74 93 -101 127 -129 162 -414 358 -595 409 -76 22 -518 33
-530 14z m573 -65 c43 -17 52 -29 30 -38 -7 -3 -58 -2 -113 1 -101 5 -124 15
-125 51 0 19 150 9 208 -14z m232 -118 c115 -59 268 -193 331 -291 22 -33 39
-63 39 -68 0 -4 -62 -8 -137 -8 -154 0 -250 16 -328 55 -59 28 -226 161 -340
269 l-80 76 230 -2 230 -3 55 -28z m154 -528 c65 -51 -12 -132 -81 -84 -32 23
-35 54 -8 81 30 29 54 30 89 3z m338 4 c24 -21 23 -45 -2 -68 -29 -27 -74 -10
-78 28 -6 52 41 76 80 40z"/>
<path d="M5694 4181 c14 -23 248 -211 298 -239 70 -41 159 -60 278 -62 119 -2
113 -4 101 19 -36 67 -242 242 -326 277 -39 16 -360 21 -351 5z"/>
<path d="M4065 4078 c-4 -13 -29 -73 -56 -134 -27 -62 -49 -115 -49 -118 0 -3
56 -6 125 -6 69 0 125 2 125 4 0 2 -20 48 -44 102 -82 186 -88 196 -101 152z"/>
<path d="M5370 4073 c-1 -25 67 -193 77 -193 18 0 43 41 43 73 0 40 -26 85
-63 107 -33 21 -57 26 -57 13z"/>
<path d="M4920 4030 c-12 -23 -20 -43 -18 -44 2 -1 23 -14 46 -30 24 -15 46
-26 48 -23 5 5 -35 118 -47 131 -4 4 -17 -11 -29 -34z"/>
<path d="M4794 3959 c-43 -12 -75 -50 -81 -98 l-6 -41 72 0 72 0 -2 63 c-2 65
-7 88 -18 86 -3 0 -20 -5 -37 -10z"/>
<path d="M4900 3848 l0 -73 -959 2 -958 3 -76 -78 -76 -77 1039 -3 1039 -2 3
-66 3 -66 115 83 c121 86 160 118 160 129 0 7 -275 220 -284 220 -3 0 -6 -33
-6 -72z"/>
<path d="M2633 3766 c-4 -5 -1 -6 5 -2 25 15 10 -8 -43 -67 -30 -33 -55 -64
-55 -69 0 -4 21 -8 48 -8 46 0 50 3 120 73 39 40 72 75 72 78 0 9 -142 4 -147
-5z"/>
<path d="M2777 3702 c-37 -37 -67 -71 -67 -75 0 -4 12 -7 26 -7 18 0 45 19 95
69 38 39 69 72 69 75 0 3 -12 6 -28 6 -21 0 -44 -16 -95 -68z"/>
<path d="M2342 3685 c-25 -29 -29 -43 -6 -25 15 13 38 50 31 50 -2 0 -13 -11
-25 -25z"/>
<path d="M2085 3590 c3 -5 10 -10 16 -10 5 0 9 5 9 10 0 6 -7 10 -16 10 -8 0
-12 -4 -9 -10z"/>
<path d="M2130 3596 c0 -2 7 -7 16 -10 8 -3 12 -2 9 4 -6 10 -25 14 -25 6z"/>
<path d="M2323 3593 c9 -2 25 -2 35 0 9 3 1 5 -18 5 -19 0 -27 -2 -17 -5z"/>
<path d="M2480 3571 c0 -24 47 -157 90 -253 71 -158 192 -350 294 -463 15 -16
41 -47 59 -69 85 -102 353 -309 517 -398 258 -140 625 -251 920 -278 439 -39
882 32 1250 200 421 192 733 464 945 824 56 96 108 206 101 213 -3 3 -98 0
-212 -6 -114 -6 -222 -11 -240 -11 -30 0 -36 -6 -69 -62 -87 -149 -223 -305
-364 -417 -309 -246 -666 -371 -1061 -371 -120 0 -316 21 -345 37 -7 5 42 9
110 9 324 4 661 108 819 253 32 29 86 100 86 112 0 4 -33 -7 -73 -26 -289
-131 -658 -176 -963 -116 -199 39 -359 107 -542 229 -78 52 -170 138 -159 148
3 3 42 -19 88 -49 157 -102 314 -169 509 -217 147 -36 164 -39 304 -49 354
-27 696 74 983 288 86 64 225 200 217 212 -2 4 -114 5 -248 2 -134 -3 -255 -3
-269 1 -26 6 -47 53 -83 184 -9 34 -21 65 -25 68 -5 3 -46 -17 -92 -44 -125
-75 -157 -92 -168 -92 -5 0 -9 32 -9 70 l0 70 -107 1 c-60 0 -116 2 -125 4
-24 4 -23 -10 5 -46 52 -72 13 -180 -81 -221 -37 -17 -58 -19 -131 -14 -47 3
-95 6 -106 6 -99 -1 -285 -1 -305 0 -14 0 -44 -2 -68 -6 -55 -8 -89 1 -97 26
-7 22 -25 27 -25 7 0 -29 -50 -38 -209 -36 l-156 2 -40 39 -39 39 -13 -25
c-16 -31 -42 -46 -81 -46 -52 0 -61 22 -64 155 l-3 120 -362 3 c-213 1 -363
-2 -363 -7z"/>
<path d="M3343 3572 l-23 -7 23 -29 24 -29 21 30 c19 27 20 32 6 37 -18 7 -20
7 -51 -2z"/>
<path d="M3254 3559 c-3 -6 -7 -57 -7 -113 0 -93 1 -101 19 -101 16 0 20 9 24
64 l5 65 33 -38 34 -39 39 39 c21 21 39 34 40 29 0 -6 1 -35 2 -65 2 -49 5
-55 25 -58 22 -3 22 -1 22 97 0 89 -2 101 -19 111 -25 13 -31 13 -31 -2 0 -7
-17 -32 -38 -56 l-37 -44 -44 61 c-45 62 -55 69 -67 50z"/>
<path d="M3566 3545 c-3 -9 -6 -59 -6 -111 l0 -94 84 0 c74 0 110 10 94 25 -7
7 -49 13 -90 14 -34 1 -38 4 -38 26 0 24 3 25 55 25 42 0 55 3 55 15 0 12 -13
15 -55 15 -54 0 -55 0 -55 30 l0 30 61 0 c52 0 60 2 57 18 -5 25 -152 31 -162
7z"/>
<path d="M3790 3530 c0 -18 5 -20 38 -18 l37 3 3 -87 c1 -49 6 -88 10 -88 24
1 31 22 34 95 l3 80 38 3 c24 2 37 8 34 15 -2 8 -37 13 -100 15 -92 3 -97 2
-97 -18z"/>
<path d="M4040 3445 c0 -98 1 -105 20 -105 16 0 20 7 20 35 0 32 2 35 30 35
19 0 33 -7 40 -19 15 -29 40 -51 56 -51 19 0 17 20 -5 49 -19 24 -19 25 5 44
33 26 32 69 -2 96 -21 17 -41 21 -95 21 l-69 0 0 -105z m133 59 c23 -7 22 -41
-2 -54 -11 -5 -36 -10 -55 -10 -34 0 -36 2 -36 33 0 19 3 37 7 41 6 6 42 2 86
-10z"/>
<path d="M4324 3516 c-26 -26 -34 -42 -34 -69 0 -69 74 -121 147 -103 38 10
93 69 93 100 0 67 -46 106 -126 106 -39 0 -51 -5 -80 -34z m141 -21 c39 -38
30 -86 -22 -113 -32 -17 -57 -15 -87 9 -52 41 -16 129 54 129 19 0 40 -9 55
-25z"/>
<path d="M3780 3455 c0 -10 30 -65 35 -65 3 0 5 16 5 35 0 28 -4 35 -20 35
-11 0 -20 -2 -20 -5z"/>
<path d="M3333 1798 c4 -101 7 -204 7 -230 l0 -48 119 0 c129 0 172 10 213 48
53 48 45 137 -13 168 -16 8 -29 17 -29 20 0 3 12 16 28 29 23 20 27 31 27 74
0 44 -4 55 -33 83 l-32 33 -147 3 -146 4 6 -184z m251 90 c22 -32 20 -55 -9
-83 -20 -21 -34 -25 -85 -25 l-60 0 0 65 0 65 69 0 c61 0 72 -3 85 -22z m8
-185 c24 -28 29 -53 16 -76 -17 -33 -27 -37 -105 -37 l-73 0 0 65 0 65 73 0
c58 0 77 -4 89 -17z"/>
<path d="M3908 1965 c-92 -34 -148 -115 -148 -214 0 -71 25 -125 78 -173 87
-78 237 -80 338 -3 95 72 102 259 12 342 -62 58 -192 80 -280 48z m174 -71
c57 -27 73 -59 73 -146 0 -68 -3 -79 -25 -103 -51 -56 -124 -69 -198 -35 -109
49 -107 245 3 290 33 14 112 11 147 -6z"/>
<path d="M4477 1966 c-101 -36 -149 -98 -155 -199 -4 -58 0 -75 23 -122 44
-90 118 -131 224 -123 38 3 68 12 88 26 l32 22 3 -22 c2 -19 10 -24 41 -26
l37 -3 0 119 0 120 -29 4 c-17 2 -57 2 -90 0 -56 -4 -61 -6 -61 -28 0 -20 5
-23 48 -26 46 -3 47 -4 47 -37 0 -95 -182 -110 -248 -20 -28 38 -33 134 -10
179 42 80 152 106 240 56 l43 -25 21 31 c22 30 22 31 3 42 -77 46 -182 58
-257 32z"/>
<path d="M4980 1959 c-92 -42 -134 -107 -134 -209 0 -77 25 -133 80 -178 104
-86 298 -61 369 46 80 123 38 285 -90 343 -56 26 -166 25 -225 -2z m190 -67
c49 -24 75 -74 75 -144 0 -88 -54 -147 -143 -156 -60 -5 -125 26 -149 71 -21
41 -19 141 4 179 37 63 139 87 213 50z"/>
<path d="M5380 1945 l0 -35 78 0 77 0 0 -193 0 -192 42 -3 43 -3 2 197 3 198
70 2 70 2 3 31 3 31 -195 0 -196 0 0 -35z"/>
<path d="M5941 1954 c-20 -45 -171 -422 -171 -428 0 -3 20 -6 44 -6 l44 0 19
58 20 57 100 3 101 3 19 -58 20 -58 48 -3 c43 -3 47 -1 40 15 -4 10 -24 61
-45 113 -20 52 -58 148 -85 213 l-47 117 -47 0 c-42 0 -49 -3 -60 -26z m96
-153 c17 -49 29 -92 25 -95 -8 -9 -132 -7 -132 1 0 16 63 183 69 183 3 0 20
-40 38 -89z"/>
</g>
</svg>
