<?xml version="1.0"?><!DOCTYPE svg  PUBLIC '-//W3C//DTD SVG 1.1//EN'  'http://www.w3.org/Graphics/SVG/1.1/DTD/svg11.dtd'><svg xmlns="http://www.w3.org/2000/svg" xmlns:xlink="http://www.w3.org/1999/xlink" version="1.1" id="Layer_2" width="512px" height="512px" viewBox="0 0 512 512" enable-background="new 0 0 512 512" xml:space="preserve"><g><path fill="#F9BC15" d="M223.151,159.114l-38.806-38.724c21.75-11.384,45.884-17.32,71.004-17.32   c84.594,0,153.417,68.676,153.417,153.091H486c0-61.478-23.992-119.277-67.556-162.749S316.958,26,255.349,26   c-45.859,0-89.552,13.167-127.306,38.208L93.421,29.659L45.936,206.498L223.151,159.114z"/><path fill="#F9BC15" d="M288.849,352.886l38.806,38.724c-21.75,11.384-45.884,17.32-71.004,17.32   c-84.594,0-153.417-68.676-153.417-153.092H26c0,61.478,23.992,119.277,67.556,162.749C137.12,462.059,195.042,486,256.651,486   c45.859,0,89.552-13.167,127.306-38.208l34.623,34.549l47.484-176.839L288.849,352.886z"/></g></svg>